<svg xmlns="http://www.w3.org/2000/svg" xmlns:xlink="http://www.w3.org/1999/xlink" width="500" zoomAndPan="magnify" viewBox="0 0 375 374.999991" height="500" preserveAspectRatio="xMidYMid meet" version="1.2"><defs><clipPath id="d3e5c1b7e4"><path d="M 111.03125 60.429688 L 302.28125 60.429688 L 302.28125 310.929688 L 111.03125 310.929688 Z M 111.03125 60.429688 "/></clipPath><clipPath id="2a94130d67"><rect x="0" width="95" y="0" height="161"/></clipPath><clipPath id="ba40ab8529"><rect x="0" width="97" y="0" height="162"/></clipPath></defs><g id="77b0c5af21"><rect x="0" width="375" y="0" height="374.999991" style="fill:#ffffff;fill-opacity:1;stroke:none;"/><rect x="0" width="375" y="0" height="374.999991" style="fill:#ffffff;fill-opacity:1;stroke:none;"/><g clip-rule="nonzero" clip-path="url(#d3e5c1b7e4)"><path style=" stroke:none;fill-rule:evenodd;fill:#c5b5de;fill-opacity:1;" d="M 111.050781 299.875 L 111.050781 310.710938 L 262.035156 310.710938 L 262.035156 299.875 Z M 225.441406 60.425781 L 225.441406 61.90625 L 236.148438 61.90625 L 236.148438 60.425781 Z M 222.527344 64.515625 L 222.527344 65.996094 L 235.277344 65.996094 L 235.277344 64.515625 Z M 219.382812 69.035156 L 219.382812 71.207031 L 234.410156 71.207031 L 234.410156 69.035156 Z M 215.394531 74.25 L 215.394531 77.777344 L 233.972656 77.777344 L 233.972656 74.25 Z M 212.253906 81.253906 L 212.253906 84.777344 L 233.972656 84.777344 L 233.972656 81.253906 Z M 209.339844 88.257812 L 209.339844 92.46875 L 235.355469 92.46875 L 235.355469 88.257812 Z M 207.5 95.949219 L 207.5 100.160156 L 237.039062 100.160156 L 237.039062 95.949219 Z M 206.5 104.074219 L 206.5 109.207031 L 240.71875 109.207031 L 240.71875 104.074219 Z M 206.5 113.121094 L 206.5 119.882812 L 245.78125 119.882812 L 245.78125 113.121094 Z M 208.570312 123.792969 L 208.570312 132.335938 L 254.367188 132.335938 L 254.367188 123.792969 Z M 212.023438 136.25 L 212.023438 144.789062 L 264.101562 144.789062 L 264.101562 136.25 Z M 215.394531 148.703125 L 215.394531 157.246094 L 273.765625 157.246094 L 273.765625 148.703125 Z M 218.078125 161.15625 L 218.078125 169.699219 L 282.65625 169.699219 L 282.65625 161.15625 Z M 219.382812 173.609375 L 219.382812 182.152344 L 289.710938 182.152344 L 289.710938 173.609375 Z M 218.691406 186.0625 L 218.691406 195.511719 L 296.074219 195.511719 L 296.074219 186.0625 Z M 215.933594 199.421875 L 215.933594 208.875 L 300.058594 208.875 L 300.058594 199.421875 Z M 211.945312 212.785156 L 211.945312 222.234375 L 302.207031 222.234375 L 302.207031 212.785156 Z M 203.972656 226.144531 L 203.972656 236.980469 L 302.207031 236.980469 L 302.207031 226.144531 Z M 193.851562 240.890625 L 193.851562 251.726562 L 299.445312 251.726562 L 299.445312 240.890625 Z M 179.4375 255.636719 L 179.4375 266.472656 L 293.617188 266.472656 L 293.617188 255.636719 Z M 161.34375 270.382812 L 161.34375 281.21875 L 285.644531 281.21875 L 285.644531 270.382812 Z M 137.425781 285.128906 L 137.425781 295.964844 L 274.910156 295.964844 L 274.910156 285.128906 L 137.425781 285.128906 "/></g><g transform="matrix(1,0,0,1,45,96)"><g clip-path="url(#2a94130d67)"><g style="fill:#c5b5de;fill-opacity:1;"><g transform="translate(0.154114, 101.546887)"><path style="stroke:none" d="M 72.765625 -66.0625 C 72.929688 -65.882812 73.316406 -65.773438 73.921875 -65.734375 C 74.523438 -65.691406 75.0625 -65.453125 75.53125 -65.015625 C 76.007812 -64.585938 76.742188 -63.171875 77.734375 -60.765625 C 78.722656 -58.359375 79.21875 -56.359375 79.21875 -54.765625 C 79.21875 -53.171875 79.019531 -51.492188 78.625 -49.734375 C 78.238281 -47.972656 77.617188 -47.09375 76.765625 -47.09375 C 75.304688 -47.09375 74.101562 -48.789062 73.15625 -52.1875 C 72.207031 -55.582031 71.519531 -57.710938 71.09375 -58.578125 C 68.675781 -63.648438 66.09375 -67.347656 63.34375 -69.671875 C 60.851562 -71.992188 58.316406 -73.15625 55.734375 -73.15625 C 54.617188 -73.15625 53.5 -72.9375 52.375 -72.5 C 46.875 -70.175781 44.125 -64.757812 44.125 -56.25 C 44.125 -53.5 44.640625 -50.25 45.671875 -46.5 C 46.703125 -42.757812 48.289062 -39.472656 50.4375 -36.640625 C 50.875 -36.117188 53.15625 -35.6875 57.28125 -35.34375 C 59.4375 -35.09375 60.6875 -34.34375 61.03125 -33.09375 C 61.375 -31.84375 60.851562 -30.875 59.46875 -30.1875 C 58.695312 -29.238281 55.734375 -29.5 50.578125 -30.96875 C 49.203125 -31.3125 48.296875 -31.523438 47.859375 -31.609375 C 43.210938 -31.523438 37.96875 -30.492188 32.125 -28.515625 C 26.28125 -26.535156 20.90625 -23.5 16 -19.40625 C 11.09375 -15.320312 8.640625 -10.832031 8.640625 -5.9375 C 8.640625 -2.238281 10.144531 0.75 13.15625 3.03125 C 16.164062 5.3125 21.003906 6.453125 27.671875 6.453125 C 34.335938 6.453125 41.773438 5.421875 49.984375 3.359375 C 58.203125 1.296875 64.65625 -0.9375 69.34375 -3.34375 C 74.03125 -5.757812 78.648438 -9.160156 83.203125 -13.546875 C 87.765625 -17.929688 90.046875 -21.71875 90.046875 -24.90625 C 90.046875 -25.414062 90.023438 -25.84375 89.984375 -26.1875 C 89.941406 -26.53125 90.007812 -26.742188 90.1875 -26.828125 C 90.695312 -27.085938 91.125 -27.046875 91.46875 -26.703125 C 92.59375 -24.554688 93.15625 -22.878906 93.15625 -21.671875 C 93.15625 -18.148438 91.992188 -14.96875 89.671875 -12.125 C 85.628906 -7.226562 81.066406 -3.359375 75.984375 -0.515625 C 70.910156 2.316406 63.96875 4.722656 55.15625 6.703125 C 46.34375 8.679688 39.007812 9.671875 33.15625 9.671875 C 27.3125 9.671875 22.34375 9.15625 18.25 8.125 C 14.164062 7.09375 10.617188 5.03125 7.609375 1.9375 C 4.597656 -1.15625 3.09375 -4.957031 3.09375 -9.46875 C 3.09375 -13.988281 4.1875 -17.816406 6.375 -20.953125 C 8.570312 -24.097656 11.195312 -26.53125 14.25 -28.25 C 17.3125 -29.96875 20.988281 -31.390625 25.28125 -32.515625 C 31.644531 -34.234375 38.742188 -35.304688 46.578125 -35.734375 C 40.984375 -42.097656 37.671875 -49.453125 36.640625 -57.796875 C 36.554688 -58.742188 36.515625 -59.648438 36.515625 -60.515625 C 36.515625 -63.609375 37.265625 -66.460938 38.765625 -69.078125 C 40.273438 -71.703125 42.789062 -73.570312 46.3125 -74.6875 C 49.84375 -75.8125 52.46875 -76.375 54.1875 -76.375 C 55.90625 -76.375 57.171875 -76.265625 57.984375 -76.046875 C 58.804688 -75.835938 59.519531 -75.625 60.125 -75.40625 C 60.726562 -75.195312 61.328125 -74.894531 61.921875 -74.5 C 62.523438 -74.113281 63.039062 -73.789062 63.46875 -73.53125 C 63.90625 -73.28125 64.421875 -72.875 65.015625 -72.3125 C 65.617188 -71.75 66.050781 -71.359375 66.3125 -71.140625 C 66.570312 -70.929688 67.046875 -70.503906 67.734375 -69.859375 C 68.421875 -69.210938 68.847656 -68.847656 69.015625 -68.765625 C 70.304688 -67.210938 71.554688 -66.3125 72.765625 -66.0625 Z M 72.765625 -66.0625 "/></g></g></g></g><g transform="matrix(1,0,0,1,109,114)"><g clip-path="url(#ba40ab8529)"><g style="fill:#c5b5de;fill-opacity:1;"><g transform="translate(1.066709, 102.141056)"><path style="stroke:none" d="M 2.1875 -43.734375 L 1.9375 -45.796875 C 2.28125 -49.410156 4.363281 -52.976562 8.1875 -56.5 C 12.019531 -60.03125 16.859375 -63.382812 22.703125 -66.5625 C 28.554688 -69.75 37.847656 -72.421875 50.578125 -74.578125 C 57.796875 -75.691406 63.832031 -76.25 68.6875 -76.25 C 73.550781 -76.25 77.832031 -75.835938 81.53125 -75.015625 C 85.226562 -74.203125 88.28125 -72.59375 90.6875 -70.1875 C 93.101562 -67.78125 94.3125 -64.921875 94.3125 -61.609375 C 94.3125 -58.296875 92.910156 -55.175781 90.109375 -52.25 C 87.316406 -49.320312 83.816406 -47.085938 79.609375 -45.546875 C 71.429688 -42.535156 63.601562 -40.859375 56.125 -40.515625 C 59.820312 -38.273438 62.875 -36.316406 65.28125 -34.640625 C 67.6875 -32.960938 70.265625 -30.75 73.015625 -28 C 75.773438 -25.25 77.539062 -22.882812 78.3125 -20.90625 C 79.082031 -18.925781 79.46875 -17.160156 79.46875 -15.609375 C 79.46875 -10.535156 77.535156 -5.675781 73.671875 -1.03125 C 71.085938 2.144531 67.492188 4.679688 62.890625 6.578125 C 58.296875 8.472656 53.414062 9.421875 48.25 9.421875 C 37.238281 9.421875 31.21875 5.550781 30.1875 -2.1875 C 30.019531 -2.363281 29.9375 -2.625 29.9375 -2.96875 C 26.664062 2.28125 23.953125 4.90625 21.796875 4.90625 C 21.203125 4.90625 20.238281 4.753906 18.90625 4.453125 C 17.570312 4.148438 16.878906 3.828125 16.828125 3.484375 C 16.785156 3.140625 16.765625 2.40625 16.765625 1.28125 C 16.765625 0.164062 17.582031 -2.515625 19.21875 -6.765625 C 20.851562 -11.023438 22.703125 -15.222656 24.765625 -19.359375 C 28.804688 -27.097656 32.804688 -34.578125 36.765625 -41.796875 C 37.453125 -43.347656 37.796875 -44.507812 37.796875 -45.28125 C 37.796875 -46.0625 37.753906 -46.664062 37.671875 -47.09375 C 38.015625 -49.5 40.097656 -52.65625 43.921875 -56.5625 C 47.753906 -60.476562 51.21875 -62.4375 54.3125 -62.4375 C 55.34375 -62.4375 56.71875 -62.050781 58.4375 -61.28125 C 60.164062 -60.507812 61.203125 -59.4375 61.546875 -58.0625 C 61.628906 -57.457031 61.648438 -57.085938 61.609375 -56.953125 C 61.566406 -56.828125 61.328125 -56.847656 60.890625 -57.015625 C 60.460938 -57.191406 60.207031 -57.28125 60.125 -57.28125 C 57.375 -57.28125 54.082031 -55.238281 50.25 -51.15625 C 46.425781 -47.070312 42.75 -42.0625 39.21875 -36.125 C 31.90625 -24.082031 26.660156 -14.191406 23.484375 -6.453125 C 22.796875 -4.734375 22.453125 -3.398438 22.453125 -2.453125 C 22.453125 -1.160156 23.007812 -0.515625 24.125 -0.515625 C 25.238281 -0.515625 26.742188 -1.695312 28.640625 -4.0625 C 30.535156 -6.425781 31.867188 -7.585938 32.640625 -7.546875 C 33.410156 -7.503906 34.03125 -7.265625 34.5 -6.828125 C 34.976562 -6.398438 35.300781 -5.953125 35.46875 -5.484375 C 35.644531 -5.015625 35.773438 -4.347656 35.859375 -3.484375 C 35.953125 -2.617188 36.039062 -2.0625 36.125 -1.8125 C 37.5 4.300781 41.84375 7.359375 49.15625 7.359375 C 49.320312 7.359375 49.492188 7.359375 49.671875 7.359375 C 55.609375 7.359375 60.679688 5.976562 64.890625 3.21875 C 69.535156 0.125 71.859375 -3.71875 71.859375 -8.3125 C 71.859375 -12.914062 69.707031 -17.753906 65.40625 -22.828125 C 64.03125 -24.378906 62.007812 -26.316406 59.34375 -28.640625 C 53.664062 -33.546875 50.738281 -36.6875 50.5625 -38.0625 C 50.394531 -39.4375 50.976562 -40.570312 52.3125 -41.46875 C 53.644531 -42.375 54.875 -42.828125 56 -42.828125 C 60.207031 -42.828125 65.96875 -44.332031 73.28125 -47.34375 C 84.03125 -51.726562 89.789062 -56.585938 90.5625 -61.921875 C 90.5625 -62.265625 90.5625 -62.523438 90.5625 -62.703125 C 90.5625 -64.253906 89.875 -65.71875 88.5 -67.09375 C 86.175781 -69.582031 81.273438 -70.828125 73.796875 -70.828125 C 63.554688 -70.828125 51.644531 -68.976562 38.0625 -65.28125 C 29.800781 -63.039062 22.53125 -59.859375 16.25 -55.734375 C 9.375 -51.171875 5.9375 -46.3125 5.9375 -41.15625 C 5.9375 -40.039062 6.28125 -38.941406 6.96875 -37.859375 C 7.65625 -36.785156 8.445312 -36.007812 9.34375 -35.53125 C 10.25 -35.0625 11.429688 -34.546875 12.890625 -33.984375 C 14.359375 -33.429688 15.414062 -33.003906 16.0625 -32.703125 C 16.707031 -32.398438 16.921875 -32.035156 16.703125 -31.609375 C 16.492188 -31.179688 15.875 -31.050781 14.84375 -31.21875 C 12 -31.394531 9.15625 -32.578125 6.3125 -34.765625 C 3.476562 -36.960938 2.0625 -39.523438 2.0625 -42.453125 C 2.0625 -42.878906 2.101562 -43.304688 2.1875 -43.734375 Z M 2.1875 -43.734375 "/></g></g></g></g></g></svg>